# xmcd
#
# Track frame offsets:
# 150
# 15788
# 29978
# 45158
# 62993
# 76087
# 91552
# 108356
# 124455
# 138978
# 152167
# 167754
# 184046
# 200814
# 217519
# 230676
# 247594
# 261794
# 276591
# 291045
#
# Disc length: 4066 seconds
#
#
# Revision: 2
# Processed by: cddbd v1.5.2PL0 Copyright (c) Steve Scherf et al.
# Submitted via: FreeRIP 2.951 
#
DISCID=0e0fe014
DTITLE=Chico Amado and Xodo - A Fila Anda
DYEAR=2009
DGENRE=Country
TTITLE0=Pe Na Jaca
TTITLE1=Nois Pega Mais Nao Apega
TTITLE2=A Fila Anda
TTITLE3=Seresteiro Das Noites
TTITLE4=Esse Cara Sou Eu
TTITLE5=Bebo E Choro
TTITLE6=De Que Vale Ter Tudo Na Vida
TTITLE7=Fuzue (Ao Vivo)
TTITLE8=Ta Em Off
TTITLE9=Ela Me Pegou
TTITLE10=Volta Pra Casa
TTITLE11=De Alma Ferida
TTITLE12=Cara De Bobo
TTITLE13=No Centro Da Dor
TTITLE14=Som Na Caixa
TTITLE15=Mudanca
TTITLE16=Ta Bombando
TTITLE17=Tem Alguem No Seu Lugar
TTITLE18=Telefone No Ar
TTITLE19=Fazendo Um Tendel
EXTD=
EXTT0=
EXTT1=
EXTT2=
EXTT3=
EXTT4=
EXTT5=
EXTT6=
EXTT7=
EXTT8=
EXTT9=
EXTT10=
EXTT11=
EXTT12=
EXTT13=
EXTT14=
EXTT15=
EXTT16=
EXTT17=
EXTT18=
EXTT19=
PLAYORDER=
